<svg width="552" height="586" viewBox="0 0 552 586" fill="none" xmlns="http://www.w3.org/2000/svg">
<path d="M364.852 564.754C364.852 573.802 283.185 574.766 182.673 581.137C82.2538 587.501 0.49353 573.802 0.49353 564.754C0.49353 555.707 82.6305 537.502 182.673 548.372C283.185 559.294 364.852 555.707 364.852 564.754Z" fill="#E6E6E6"/>
<path d="M523.38 0.938182H307.443C297.023 0.93817 286.913 4.53348 278.775 11.1331C270.637 17.7327 264.955 26.9439 262.663 37.2526L153.555 528.051C152.365 533.404 152.344 538.957 153.493 544.319C154.643 549.682 156.935 554.724 160.21 559.093C163.484 563.462 167.661 567.052 172.448 569.611C177.235 572.169 182.516 573.635 187.921 573.905L409.905 584.997C421.792 585.591 433.485 581.779 442.804 574.271C452.123 566.764 458.429 556.075 460.548 544.199L522.441 197.198L527.045 198.533L538.888 132.763L534.148 131.561L551.425 34.7013C552.165 30.5526 551.993 26.2894 550.922 22.2156C549.851 18.1419 547.907 14.3579 545.229 11.1335C542.55 7.90902 539.204 5.3235 535.427 3.56122C531.65 1.79895 527.537 0.903313 523.38 0.938175L523.38 0.938182Z" fill="#3F3D56"/>
<path d="M335.871 11.5185H310.665C303.426 11.5185 296.405 14.0292 290.767 18.6337C285.129 23.2383 281.214 29.6598 279.671 36.8321L174.942 523.626C174.339 526.429 174.339 529.331 174.943 532.133C175.547 534.936 176.741 537.573 178.442 539.865C180.143 542.157 182.312 544.049 184.8 545.413C187.289 546.777 190.038 547.58 192.861 547.768L414.127 562.474C420.369 562.889 426.544 560.959 431.472 557.051C436.4 553.144 439.737 547.533 440.846 541.289L530.212 38.1397C530.791 34.8831 530.657 31.5375 529.821 28.3389C528.986 25.1403 527.468 22.1667 525.375 19.6279C523.282 17.0892 520.666 15.0471 517.71 13.6459C514.754 12.2447 511.531 11.5185 508.268 11.5185H484.356C482.041 11.5185 479.792 12.2923 477.955 13.7199C476.118 15.1476 474.796 17.1496 474.194 19.416V19.416C473.663 21.4168 472.496 23.1842 470.875 24.4446C469.253 25.705 467.267 26.3881 465.224 26.3881H351.704C347.703 26.3881 343.85 24.8566 340.914 22.0998C337.979 19.3429 336.178 15.564 335.871 11.5185V11.5185Z" fill="white"/>
<path d="M99.0242 261.91L118.534 301.079L176.868 327.973C183.097 338.65 202.893 339.467 204.332 332.563C205.947 324.817 180.294 312.35 180.294 312.35L131.502 278.882L127.233 250.07L99.0242 261.91Z" fill="#A0616A"/>
<path d="M101.325 524.766L97.7275 553.956L118.596 555.416L120.754 524.766H101.325Z" fill="#A0616A"/>
<path d="M104.204 549.577C102.339 547.577 100.618 545.443 99.0547 543.191C96.064 538.994 93.4103 560.524 93.4103 560.524C93.4103 560.524 90.532 569.281 91.2516 573.659C91.9712 578.038 108.522 578.038 111.4 577.308C114.278 576.578 128.67 577.308 128.67 577.308H150.257C168.966 568.551 150.257 562.713 150.257 562.713C144.501 561.983 125.072 543.739 125.072 543.739L120.754 535.712C117.876 534.982 114.998 545.929 114.998 545.929L104.204 549.577Z" fill="#2F2E41"/>
<path d="M47.3573 525.131L43.7585 554.321L64.6266 555.781L66.7858 525.131H47.3573Z" fill="#A0616A"/>
<path d="M50.2354 549.942C48.3699 547.942 46.649 545.807 45.0861 543.556C42.0954 539.359 39.4417 560.889 39.4417 560.889C39.4417 560.889 36.5634 568.916 37.283 573.294C38.0026 577.673 54.553 577.673 57.4313 576.943C60.3096 576.213 74.7012 577.673 74.7012 577.673H96.2887C114.998 568.916 96.2887 563.078 96.2887 563.078C90.532 562.348 71.1033 544.104 71.1033 544.104L66.7858 536.077C63.9075 535.347 61.0291 546.294 61.0291 546.294L50.2354 549.942Z" fill="#2F2E41"/>
<path d="M71.1033 336.854C68.225 340.503 69.6641 352.909 69.6641 352.909C69.6641 352.909 64.627 393.045 66.7858 396.694C68.9445 400.343 65.3466 403.262 63.1879 408.37C61.0291 413.478 58.8704 425.884 58.8704 425.884C46.6375 436.101 47.3571 482.805 47.3571 482.805L43.0396 524.401C44.4787 528.78 64.627 529.509 67.5053 528.78C70.3837 528.05 79.0186 462.372 79.0186 462.372L98.4474 425.154C98.4474 425.154 97.0082 524.401 97.0082 528.78C97.0082 533.158 116.437 530.969 120.754 530.969C125.072 530.969 125.072 457.993 125.072 457.993L129.389 439.02L152.416 352.179V341.962L148.818 336.854C148.818 336.854 73.9817 333.205 71.1033 336.854Z" fill="#2F2E41"/>
<path d="M102.765 171.2C115.085 171.2 125.072 161.071 125.072 148.577C125.072 136.083 115.085 125.955 102.765 125.955C90.4451 125.955 80.4579 136.083 80.4579 148.577C80.4579 161.071 90.4451 171.2 102.765 171.2Z" fill="#A0616A"/>
<path d="M113.918 159.159C109.397 169.37 112.074 183.632 121.114 199.295L84.4155 181.781L90.1722 176.673L88.7331 162.078L113.918 159.159Z" fill="#A0616A"/>
<path d="M113.918 182.511C118.724 185.408 121.599 190.732 123.249 196.149C126.304 206.179 128.143 216.548 128.726 227.029L130.469 258.405L152.056 341.598C133.347 357.652 122.553 354.003 97.368 340.868C72.1827 327.732 69.3043 345.246 69.3043 345.246C69.3043 345.246 67.1456 344.516 69.3043 342.327C71.4631 340.138 69.3043 342.327 67.1456 340.138C64.9869 337.949 67.1456 340.138 67.8652 337.949C68.5848 335.759 67.8652 337.219 67.1456 336.489C66.426 335.759 70.0239 329.192 70.0239 329.192L64.2672 274.46L57.0714 197.106C65.7064 186.16 90.1722 176.673 90.1722 176.673L112.479 192.727C119.675 195.646 113.918 183.97 113.918 183.97L113.918 182.511Z" fill="#6C63FF"/>
<path d="M45.1984 243.445L42.3201 287.231L79.0188 340.503C79.0188 352.909 85.495 355.828 85.495 355.828C87.9479 351.857 90.1124 347.711 91.9712 343.422C95.5691 335.394 89.8125 328.827 89.8125 328.827L64.6271 274.825L75.4208 247.824L45.1984 243.445Z" fill="#A0616A"/>
<path d="M57.4313 197.471C45.1984 201.849 43.0397 249.283 43.0397 249.283C57.4313 241.256 74.7013 254.392 74.7013 254.392C74.7013 254.392 78.2991 241.986 82.6167 225.931C83.9203 221.415 84.0761 216.638 83.0696 212.045C82.0631 207.452 79.9269 203.191 76.86 199.66C76.86 199.66 69.6642 193.092 57.4313 197.471Z" fill="#6C63FF"/>
<path d="M82.2568 155.51C85.0966 153.206 88.9708 157.394 88.9708 157.394L91.2425 136.658C91.2425 136.658 105.442 138.386 114.529 136.082C123.616 133.778 125.036 144.434 125.036 144.434C125.505 140.131 125.6 135.794 125.32 131.474C124.752 126.291 117.369 121.107 104.306 117.651C91.2426 114.195 84.4271 129.171 84.4271 129.171C75.3397 133.778 79.417 157.814 82.2568 155.51Z" fill="#2F2E41"/>
<path d="M461.439 351.83C461.872 351.846 462.297 351.705 462.637 351.432C462.977 351.158 463.209 350.771 463.292 350.339L512.907 76.4686C512.954 76.2078 512.944 75.9398 512.879 75.6832C512.813 75.4266 512.693 75.1876 512.527 74.9829C512.361 74.7783 512.153 74.6128 511.917 74.4982C511.681 74.3837 511.424 74.3226 511.163 74.3195L285.435 71.6526H285.414C285.007 71.6542 284.612 71.7955 284.294 72.0538C283.975 72.312 283.753 72.6718 283.662 73.0747L225.173 338.056C225.116 338.315 225.115 338.583 225.171 338.842C225.227 339.101 225.338 339.345 225.497 339.556C225.655 339.767 225.857 339.94 226.089 340.064C226.32 340.187 226.576 340.258 226.837 340.271L461.439 351.83Z" fill="#E6E6E6"/>
<path d="M455.643 290.188C455.845 290.18 456.039 290.102 456.192 289.967C456.345 289.833 456.448 289.65 456.485 289.448L458.182 280.306C458.206 280.177 458.202 280.044 458.17 279.916C458.139 279.788 458.08 279.669 457.999 279.566C457.917 279.464 457.815 279.38 457.698 279.322C457.582 279.263 457.455 279.231 457.325 279.227L339.3 275.76C339.081 275.755 338.868 275.831 338.701 275.973C338.533 276.115 338.422 276.314 338.388 276.533L336.831 287.093C336.812 287.221 336.82 287.352 336.855 287.476C336.89 287.601 336.951 287.717 337.033 287.816C337.116 287.915 337.219 287.995 337.334 288.05C337.45 288.106 337.576 288.136 337.704 288.138L455.589 290.189C455.607 290.189 455.625 290.189 455.643 290.188Z" fill="#6C63FF"/>
<path d="M310.431 243.292C310.219 243.284 310.01 243.354 309.843 243.487C309.676 243.62 309.561 243.81 309.519 244.021L307.416 254.626C307.39 254.756 307.393 254.89 307.424 255.019C307.455 255.148 307.513 255.269 307.595 255.373C307.676 255.477 307.779 255.561 307.896 255.621C308.014 255.68 308.142 255.713 308.273 255.716L458.988 259.971C459.193 259.979 459.394 259.915 459.557 259.789C459.72 259.664 459.835 259.485 459.883 259.284L462.146 250.101C462.179 249.97 462.182 249.832 462.155 249.7C462.129 249.567 462.073 249.442 461.993 249.333C461.913 249.225 461.81 249.136 461.691 249.073C461.573 249.011 461.442 248.975 461.309 248.97L310.431 243.292Z" fill="#6C63FF"/>
<path d="M317.067 209.304C316.854 209.296 316.646 209.365 316.478 209.498C316.311 209.632 316.196 209.822 316.154 210.033L314.052 220.638C314.026 220.768 314.029 220.902 314.06 221.031C314.091 221.161 314.149 221.281 314.231 221.385C314.312 221.489 314.415 221.574 314.532 221.633C314.65 221.692 314.778 221.725 314.909 221.729L465.624 225.983C465.829 225.991 466.03 225.927 466.193 225.802C466.356 225.676 466.471 225.498 466.519 225.296L468.782 216.113C468.815 215.982 468.818 215.845 468.791 215.712C468.765 215.579 468.709 215.454 468.629 215.345C468.549 215.237 468.446 215.148 468.327 215.085C468.209 215.023 468.078 214.987 467.945 214.982L317.067 209.304Z" fill="#6C63FF"/>
<path d="M310.437 105.262C310.235 105.272 310.042 105.351 309.89 105.487C309.738 105.622 309.636 105.806 309.601 106.008L307.969 115.162C307.946 115.291 307.951 115.424 307.984 115.552C308.016 115.679 308.076 115.798 308.158 115.9C308.24 116.002 308.343 116.085 308.46 116.143C308.577 116.2 308.704 116.232 308.834 116.235L426.881 118.858C427.099 118.861 427.312 118.784 427.478 118.64C427.645 118.497 427.755 118.297 427.788 118.077L429.269 107.507C429.287 107.379 429.278 107.248 429.242 107.124C429.206 106.999 429.144 106.884 429.061 106.786C428.978 106.687 428.874 106.608 428.758 106.553C428.643 106.499 428.516 106.47 428.389 106.468L310.492 105.261C310.474 105.261 310.455 105.261 310.437 105.262Z" fill="#6C63FF"/>
<path d="M455.981 151.118C456.194 151.124 456.402 151.053 456.568 150.919C456.734 150.784 456.847 150.594 456.888 150.382L458.915 139.763C458.94 139.633 458.936 139.498 458.904 139.37C458.873 139.241 458.813 139.12 458.731 139.017C458.649 138.914 458.545 138.83 458.428 138.771C458.31 138.713 458.181 138.681 458.05 138.679L307.309 135.502C307.104 135.496 306.904 135.561 306.741 135.688C306.579 135.814 306.465 135.994 306.419 136.196L304.221 145.395C304.19 145.526 304.188 145.663 304.215 145.796C304.242 145.929 304.299 146.053 304.38 146.161C304.461 146.269 304.564 146.357 304.683 146.419C304.802 146.481 304.933 146.515 305.067 146.519L455.981 151.118Z" fill="#6C63FF"/>
<path d="M449.588 185.153C449.801 185.159 450.009 185.089 450.176 184.954C450.342 184.819 450.455 184.629 450.496 184.417L452.522 173.797C452.547 173.667 452.543 173.533 452.512 173.404C452.48 173.275 452.421 173.155 452.338 173.052C452.256 172.948 452.152 172.864 452.035 172.806C451.917 172.747 451.788 172.716 451.658 172.713L300.916 169.537C300.711 169.53 300.511 169.596 300.349 169.722C300.186 169.849 300.072 170.028 300.026 170.231L297.829 179.429C297.797 179.561 297.795 179.698 297.822 179.831C297.85 179.963 297.906 180.088 297.987 180.196C298.068 180.303 298.172 180.392 298.291 180.454C298.409 180.516 298.54 180.55 298.674 180.554L449.588 185.153Z" fill="#6C63FF"/>
<path d="M264.997 369.324C264.795 369.324 264.598 369.393 264.439 369.521C264.281 369.649 264.17 369.827 264.124 370.028L262.04 379.089C262.01 379.217 262.009 379.35 262.035 379.479C262.061 379.608 262.114 379.73 262.191 379.836C262.268 379.941 262.367 380.029 262.481 380.093C262.595 380.156 262.72 380.194 262.85 380.203L380.62 388.692C380.839 388.706 381.054 388.64 381.228 388.505C381.402 388.37 381.521 388.175 381.565 387.958L383.57 377.475C383.594 377.347 383.591 377.216 383.562 377.09C383.532 376.964 383.476 376.846 383.398 376.743C383.32 376.641 383.221 376.557 383.108 376.496C382.994 376.436 382.87 376.401 382.742 376.393L265.051 369.325C265.033 369.325 265.015 369.324 264.997 369.324Z" fill="#E6E6E6"/>
<path d="M408.08 422.359C408.293 422.376 408.504 422.316 408.676 422.19C408.849 422.063 408.972 421.879 409.023 421.67L411.575 411.164C411.607 411.035 411.61 410.901 411.584 410.771C411.559 410.64 411.506 410.517 411.429 410.41C411.352 410.303 411.252 410.214 411.138 410.15C411.023 410.085 410.896 410.047 410.766 410.038L260.368 399.371C260.164 399.354 259.961 399.41 259.793 399.528C259.624 399.646 259.502 399.82 259.445 400.02L256.793 409.098C256.755 409.228 256.746 409.364 256.767 409.498C256.788 409.632 256.837 409.759 256.913 409.871C256.989 409.983 257.088 410.076 257.203 410.144C257.319 410.212 257.448 410.252 257.581 410.263L408.08 422.359Z" fill="#E6E6E6"/>
<path d="M400.003 456.034C400.216 456.051 400.427 455.991 400.6 455.865C400.773 455.739 400.896 455.554 400.946 455.344L403.499 444.839C403.53 444.71 403.533 444.576 403.507 444.445C403.482 444.315 403.429 444.192 403.352 444.085C403.275 443.977 403.176 443.889 403.061 443.824C402.946 443.76 402.819 443.722 402.689 443.713L252.291 433.045C252.087 433.029 251.884 433.085 251.716 433.203C251.547 433.321 251.425 433.495 251.368 433.694L248.716 442.772C248.678 442.902 248.669 443.039 248.69 443.173C248.711 443.307 248.761 443.434 248.836 443.546C248.912 443.657 249.011 443.751 249.127 443.818C249.242 443.886 249.371 443.927 249.504 443.938L400.003 456.034Z" fill="#E6E6E6"/>
</svg>
